<svg xmlns="http://www.w3.org/2000/svg" version="1.2" baseProfile="tiny" width="53.2" height="53.2" viewBox="24 24 152 152"><path d="M 100,28 L172,100 100,172 28,100 100,28 Z" stroke-width="4" stroke="black" fill="rgb(255,128,128)" fill-opacity="1"/><circle cx="100" cy="100" r="15" stroke-width="3" stroke="black" fill="black"/><path d="M60,130L140,70" stroke-width="3" stroke="black" fill="black"/><path d="M60,85 l40,15 40,-15 0,30 -40,-15 -40,15 z" stroke-width="3" stroke="none" fill="black"/><g transform="translate(0,-35)" stroke-width="3" stroke="black" fill="black"><g transform="translate(40,40)"><g transform="scale(0.6)"><path d="m 105,85 c 0,2.8 -2.2,5 -5,5 -2.8,0 -5,-2.2 -5,-5 0,-2.8 2.2,-5 5,-5 2.8,0 5,2.2 5,5 z m -20,5 30,0 m -15,0 0,30" stroke-width="5" stroke="black" fill="none"/><path d="m 114,110 -3,-2 7,-5 -1,9 -3,-2 c -8,12 -18.6,12 -28,0 l -3,2 -2,-10 8,6 -3,2 c 9.3,11 19,11 28,0 z" stroke-width="5" stroke="black" fill="black"/></g></g></g></svg>